#!OML:ASF F:\VICON\USERDATA\INSTALL\rory3\rory3.ASF
:FULLY-SPECIFIED
:DEGREES
276
root -8.00379 16.8895 9.06793 5.70057 -45.9905 -0.860388
lowerback 23.2254 2.82848 -1.17229
upperback 7.2257 3.19138 0.927601
thorax -5.11853 1.43486 0.818876
lowerneck -12.389 -2.16992 -14.0713
upperneck 37.6729 -1.15147 3.64838
head 15.5146 -2.15988 3.81862
rclavicle -1.62208e-013 6.40087e-014
rhumerus -7.24563 7.86877 -82.6105
rradius 47.3785
rwrist -3.46125
rhand -22.8295 12.7159
rfingers 7.12502
rthumb 3.60771 -17.2333
lclavicle -1.62208e-013 6.40087e-014
lhumerus -24.3191 -37.5368 91.7095
lradius 57.824
lwrist -10.1199
lhand -25.764 22.1918
lfingers 7.12502
lthumb 0.773642 52.1701
rfemur -42.7317 -21.9009 21.8372
rtibia 73.4916
rfoot -11.1409 3.09729
rtoes 0.841314
lfemur -39.9378 15.7424 -22.5556
ltibia 45.0837
lfoot -6.40021 -3.64677
ltoes -1.30123
277
root -8.02758 16.8256 9.11365 6.10498 -46.0127 -1.03302
lowerback 23.4428 2.91691 -1.00142
upperback 7.30385 3.32862 0.856704
thorax -5.13218 1.49891 0.60193
lowerneck -12.4214 -2.30834 -13.9588
upperneck 37.4191 -1.38903 3.70005
head 15.4211 -2.21857 3.77669
rclavicle 1.17482e-013 -8.74653e-015
rhumerus -6.70825 8.27956 -82.7778
rradius 47.3623
rwrist -3.21153
rhand -22.8004 12.1297
rfingers 7.12502
rthumb 3.63581 -17.819
lclavicle 1.17482e-013 -8.74653e-015
lhumerus -24.1844 -38.9225 91.3807
lradius 58.4355
lwrist -10.6959
lhand -26.2506 22.2956
lfingers 7.12502
lthumb 0.303661 52.2751
rfemur -44.1041 -22.4189 22.5193
rtibia 73.1824
rfoot -11.5961 3.94321
rtoes 1.72707
lfemur -40.9587 15.8508 -22.5499
ltibia 46.6753
lfoot -7.19559 -3.6822
ltoes -0.029454
278
root -8.05166 16.7544 9.15732 6.52922 -45.989 -1.20773
lowerback 23.6356 2.93899 -0.912486
upperback 7.36262 3.36863 0.851671
thorax -5.16021 1.51575 0.52917
lowerneck -12.4102 -2.40264 -14.0572
upperneck 37.1051 -1.53476 3.8222
head 15.2829 -2.25746 3.81458
rclavicle 9.85972e-014 -5.00937e-014
rhumerus -6.12827 8.93702 -82.9127
rradius 47.2606
rwrist -2.84986
rhand -22.8056 12.1031
rfingers 7.12502
rthumb 3.63083 -17.8457
lclavicle 9.85972e-014 -5.00937e-014
lhumerus -24.1037 -40.0655 91.0948
lradius 59.0509
lwrist -11.004
lhand -26.5951 22.3104
lfingers 7.12502
lthumb -0.0289761 52.2901
rfemur -45.4693 -22.9123 23.1994
rtibia 72.9253
rfoot -12.1658 4.89718
rtoes 3.66414
lfemur -42.0553 15.9593 -22.5652
ltibia 48.3147
lfoot -7.948 -3.77915
ltoes 0.366387
279
root -8.07887 16.6739 9.19865 6.80173 -46.0717 -1.18369
lowerback 23.8345 2.95731 -1.14766
upperback 7.40509 3.3342 0.89938
thorax -5.22858 1.49562 0.717248
lowerneck -12.4037 -2.39334 -14.3542
upperneck 36.8563 -1.46679 3.92368
head 15.1592 -2.24185 3.9135
rclavicle 4.37326e-015 -2.38542e-015
rhumerus -5.54957 10.0767 -82.9499
rradius 47.2134
rwrist -2.61687
rhand -22.8684 11.6328
rfingers 7.12502
rthumb 3.57016 -18.3171
lclavicle 4.37326e-015 -2.38542e-015
lhumerus -24.1334 -40.7982 90.9036
lradius 59.6742
lwrist -11.244
lhand -27.1301 22.2562
lfingers 7.12502
lthumb -0.545764 52.2352
rfemur -47.0094 -23.4107 23.9234
rtibia 72.7019
rfoot -13.0217 5.24478
rtoes -0.929451
lfemur -43.1918 16.1467 -22.7385
ltibia 50.0498
lfoot -8.68854 -3.82684
ltoes -1.64827
280
root -8.10506 16.5896 9.23857 7.03759 -46.2082 -1.22585
lowerback 24.1062 3.03021 -1.27988
upperback 7.48421 3.3866 0.920698
thorax -5.28762 1.51651 0.792505
lowerneck -12.4213 -2.43481 -14.5712
upperneck 36.6672 -1.4887 4.01542
head 15.0802 -2.25644 3.98174
rclavicle 2.5842e-015 -1.03368e-014
rhumerus -4.98301 11.0399 -82.9843
rradius 47.1997
rwrist -2.44588
rhand -22.7945 10.9332
rfingers 7.12502
rthumb 3.64155 -19.0154
lclavicle 2.5842e-015 -1.03368e-014
lhumerus -24.132 -41.6948 90.6698
lradius 60.2523
lwrist -11.4884
lhand -27.9005 22.1212
lfingers 7.12502
lthumb -1.2898 52.097
rfemur -48.3497 -23.8123 24.6034
rtibia 72.5274
rfoot -13.6637 5.64726
rtoes -3.41492
lfemur -44.2687 16.4024 -22.8338
ltibia 51.8405
lfoot -9.40308 -3.84179
ltoes -4.10765
281
root -8.13211 16.4883 9.27936 7.31085 -46.2819 -1.31952
lowerback 24.2487 3.11751 -1.17504
upperback 7.6658 3.49993 0.798387
thorax -5.14858 1.56707 0.568302
lowerneck -12.5041 -2.56094 -14.3599
upperneck 36.3922 -1.70641 4.0183
head 14.9873 -2.29989 3.90427
rclavicle -4.57205e-014 2.18663e-014
rhumerus -4.30731 11.5026 -83.1573
rradius 47.1644
rwrist -2.22077
rhand -22.6733 10.5844
rfingers 7.12502
rthumb 3.75862 -19.3622
lclavicle -4.57205e-014 2.18663e-014
lhumerus -23.8534 -42.9153 90.0704
lradius 60.8018
lwrist -11.6104
lhand -28.5857 21.6379
lfingers 7.12502
lthumb -1.95159 51.6087
rfemur -49.7795 -24.4255 25.4639
rtibia 72.4281
rfoot -14.2243 5.80722
rtoes -6.26671
lfemur -45.4496 16.6753 -22.925
ltibia 53.7018
lfoot -10.0855 -3.82065
ltoes -5.5248
282
root -8.16064 16.3917 9.31668 7.65906 -46.3171 -1.41956
lowerback 24.4019 3.1673 -1.28057
upperback 7.77907 3.53139 0.840403
thorax -5.11008 1.57759 0.661821
lowerneck -12.7347 -2.61557 -14.4401
upperneck 36.2635 -1.70746 4.00337
head 14.9826 -2.30244 3.90866
rclavicle -6.55989e-015 6.75868e-015
rhumerus -3.53044 12.2359 -83.1936
rradius 46.9632
rwrist -1.95813
rhand -22.3735 10.5141
rfingers 7.12502
rthumb 4.0481 -19.4272
lclavicle -6.55989e-015 6.75868e-015
lhumerus -23.7034 -43.7449 89.7283
lradius 61.3045
lwrist -11.6822
lhand -29.4016 21.0579
lfingers 7.12502
lthumb -2.73955 51.02
rfemur -51.1517 -24.9535 26.2602
rtibia 72.3977
rfoot -14.7916 6.32494
rtoes -6.51338
lfemur -46.694 16.9431 -23.0298
ltibia 55.5307
lfoot -10.7792 -3.89434
ltoes -4.65985
